<mxfile host="app.diagrams.net" modified="2024-02-11T10:16:29.537Z" agent="Mozilla/5.0 (Windows NT 10.0; Win64; x64) AppleWebKit/537.36 (KHTML, like Gecko) Chrome/109.0.0.0 Safari/537.36" etag="TYo9M6m_JaxMc1pBgvDA" version="23.1.2" type="device">
  <diagram name="Pagina-1" id="QDIGDD1-QB6yPYRbEDxr">
    <mxGraphModel dx="1354" dy="803" grid="1" gridSize="10" guides="1" tooltips="1" connect="1" arrows="1" fold="1" page="1" pageScale="1" pageWidth="827" pageHeight="1169" math="0" shadow="0">
      <root>
        <mxCell id="0" />
        <mxCell id="1" parent="0" />
        <mxCell id="vOuDKuo2jz114GiPfdhs-4" value="HEADER" style="swimlane;fillColor=#e0e0e0;" vertex="1" connectable="0" parent="1">
          <mxGeometry x="10" y="80" width="800" height="70" as="geometry" />
        </mxCell>
        <mxCell id="vOuDKuo2jz114GiPfdhs-5" value="[ Logo ]" style="shape=ellipse;perimeter=ellipsePerimeter;fillColor=#ffffff;gradientColor=none;strokeColor=none;html=1;" vertex="1" parent="vOuDKuo2jz114GiPfdhs-4">
          <mxGeometry x="20" y="30" width="100" height="40" as="geometry" />
        </mxCell>
        <mxCell id="vOuDKuo2jz114GiPfdhs-6" value="[ Menu Icon ]" style="shape=ellipse;perimeter=ellipsePerimeter;fillColor=#ffffff;gradientColor=none;strokeColor=none;html=1;" vertex="1" parent="vOuDKuo2jz114GiPfdhs-4">
          <mxGeometry x="720" y="30" width="60" height="40" as="geometry" />
        </mxCell>
        <mxCell id="vOuDKuo2jz114GiPfdhs-7" value="HERO SECTION" style="swimlane;fillColor=#e0e0e0;" vertex="1" connectable="0" parent="1">
          <mxGeometry x="10" y="160" width="800" height="130" as="geometry" />
        </mxCell>
        <mxCell id="vOuDKuo2jz114GiPfdhs-8" value="[ Immagine ]" style="shape=rectangle;perimeter=rectanglePerimeter;fillColor=#ffffff;gradientColor=none;strokeColor=none;html=1;" vertex="1" parent="vOuDKuo2jz114GiPfdhs-7">
          <mxGeometry y="30" width="800" height="100" as="geometry" />
        </mxCell>
        <mxCell id="vOuDKuo2jz114GiPfdhs-9" value="[ Titolo: Arte Italia ]" style="text;html=1;strokeColor=none;fillColor=none;align=center;verticalAlign=middle;whiteSpace=wrap;rounded=0;" vertex="1" parent="vOuDKuo2jz114GiPfdhs-7">
          <mxGeometry x="170" y="30" width="460" height="20" as="geometry" />
        </mxCell>
        <mxCell id="vOuDKuo2jz114GiPfdhs-12" value="NAVIGATION MENU" style="swimlane;fillColor=#e0e0e0;" vertex="1" connectable="0" parent="1">
          <mxGeometry x="827" y="80" width="250" height="300" as="geometry" />
        </mxCell>
        <mxCell id="vOuDKuo2jz114GiPfdhs-13" value="- Home" style="swimlane;fillColor=#ffffff;startSize=20;" vertex="1" parent="vOuDKuo2jz114GiPfdhs-12">
          <mxGeometry x="15" y="50" width="220" height="40" as="geometry" />
        </mxCell>
        <mxCell id="vOuDKuo2jz114GiPfdhs-14" value="- Su di Noi" style="swimlane;fillColor=#ffffff;" vertex="1" parent="vOuDKuo2jz114GiPfdhs-12">
          <mxGeometry x="15" y="110" width="220" height="40" as="geometry" />
        </mxCell>
        <mxCell id="vOuDKuo2jz114GiPfdhs-15" value="- Visite Guidate" style="swimlane;fillColor=#ffffff;" vertex="1" parent="vOuDKuo2jz114GiPfdhs-12">
          <mxGeometry x="13" y="170" width="220" height="40" as="geometry" />
        </mxCell>
        <mxCell id="vOuDKuo2jz114GiPfdhs-16" value="- Contatti" style="swimlane;fillColor=#ffffff;" vertex="1" parent="vOuDKuo2jz114GiPfdhs-12">
          <mxGeometry x="13" y="230" width="220" height="40" as="geometry" />
        </mxCell>
        <mxCell id="vOuDKuo2jz114GiPfdhs-17" value="SU DI NOI SECTION" style="swimlane;fillColor=#e0e0e0;" vertex="1" connectable="0" parent="1">
          <mxGeometry x="13" y="300" width="800" height="150" as="geometry" />
        </mxCell>
        <mxCell id="vOuDKuo2jz114GiPfdhs-18" value="[ Titolo: Su Di Noi ]" style="text;html=1;strokeColor=none;fillColor=none;align=center;verticalAlign=middle;whiteSpace=wrap;rounded=0;" vertex="1" parent="vOuDKuo2jz114GiPfdhs-17">
          <mxGeometry x="140" y="30" width="520" height="20" as="geometry" />
        </mxCell>
        <mxCell id="vOuDKuo2jz114GiPfdhs-22" value="- Immagine Museo" style="swimlane;fillColor=#ffffff;" vertex="1" parent="vOuDKuo2jz114GiPfdhs-17">
          <mxGeometry x="577" y="80" width="150" height="40" as="geometry" />
        </mxCell>
        <mxCell id="vOuDKuo2jz114GiPfdhs-23" value="[ Testo: Breve descrizione delle proposte del Museo ]" style="text;html=1;strokeColor=none;fillColor=none;align=center;verticalAlign=middle;whiteSpace=wrap;rounded=0;" vertex="1" parent="vOuDKuo2jz114GiPfdhs-17">
          <mxGeometry x="-13" y="60" width="460" height="40" as="geometry" />
        </mxCell>
        <mxCell id="vOuDKuo2jz114GiPfdhs-24" value="[ Button: Esplora ]" style="text;html=1;strokeColor=none;fillColor=none;align=center;verticalAlign=middle;whiteSpace=wrap;rounded=0;" vertex="1" parent="vOuDKuo2jz114GiPfdhs-17">
          <mxGeometry x="-13" y="100" width="460" height="20" as="geometry" />
        </mxCell>
        <mxCell id="vOuDKuo2jz114GiPfdhs-25" value="FOOTER SECTION" style="swimlane;fillColor=#e0e0e0;" vertex="1" connectable="0" parent="1">
          <mxGeometry x="13" y="460" width="800" height="120" as="geometry" />
        </mxCell>
        <mxCell id="vOuDKuo2jz114GiPfdhs-26" value="[ Titolo: Social Media Links ]" style="text;html=1;strokeColor=none;fillColor=none;align=center;verticalAlign=middle;whiteSpace=wrap;rounded=0;" vertex="1" parent="vOuDKuo2jz114GiPfdhs-25">
          <mxGeometry x="300" y="30" width="200" height="20" as="geometry" />
        </mxCell>
        <mxCell id="vOuDKuo2jz114GiPfdhs-27" value="[ Lista di icone dei social media ]" style="text;html=1;strokeColor=none;fillColor=none;align=center;verticalAlign=middle;whiteSpace=wrap;rounded=0;" vertex="1" parent="vOuDKuo2jz114GiPfdhs-25">
          <mxGeometry x="310" y="50" width="200" height="40" as="geometry" />
        </mxCell>
        <mxCell id="vOuDKuo2jz114GiPfdhs-28" value="[ Copyright information ]" style="text;html=1;strokeColor=none;fillColor=none;align=center;verticalAlign=middle;whiteSpace=wrap;rounded=0;" vertex="1" parent="vOuDKuo2jz114GiPfdhs-25">
          <mxGeometry x="310" y="90" width="200" height="20" as="geometry" />
        </mxCell>
      </root>
    </mxGraphModel>
  </diagram>
</mxfile>
